<svg xmlns="http://www.w3.org/2000/svg" viewBox="0 0 64 64" width="64" height="64">
  <defs>
    <clipPath id="r"><rect x="0" y="0" width="64" height="64" rx="5.44" ry="5.44"/></clipPath>
  </defs>
  <g clip-path="url(#r)">
    <rect x="0" y="0" width="64" height="64" fill="#F2F1ED"/>
    <rect x="0" y="58.24" width="64" height="5.76" fill="#D4FF3D"/>
    <g transform="translate(9.05,40.97) scale(0.03456,-0.03456)"><path d="M75 0V687H495Q548 687 591.0 666.0Q634 645 659.5 607.0Q685 569 685 518Q685 473 669.5 441.0Q654 409 628.5 389.0Q603 369 571 359V355Q608 347 638.0 326.5Q668 306 685.5 271.0Q703 236 703 186Q703 127 675.0 85.5Q647 44 601.0 22.0Q555 0 498 0ZM254 138H449Q481 138 500.5 157.0Q520 176 520 215Q520 236 511.5 252.5Q503 269 486.5 278.0Q470 287 446 287H254ZM254 414H433Q455 414 470.5 423.0Q486 432 494.5 448.0Q503 464 503 486Q503 518 484.0 536.0Q465 554 436 554H254Z" fill="#0E0F11"/></g><g transform="translate(33.42,40.97) scale(0.03456,-0.03456)"><path d="M75 0V687H254V147H603V0Z" fill="#0E0F11"/></g>
  </g>
</svg>